<svg xmlns="http://www.w3.org/2000/svg" xmlns:xlink="http://www.w3.org/1999/xlink" width="320" zoomAndPan="magnify" viewBox="0 0 240 60" height="80" preserveAspectRatio="xMidYMid meet" version="1.2"><defs/><g id="110f9c5190"><g style="fill:#fae202;fill-opacity:1;"><g transform="translate(104.453429, 52.82828)"><path style="stroke:none" d="M 0.578125 -0.375 C 0.285156 -0.695312 0.140625 -1.085938 0.140625 -1.546875 C 0.140625 -2.003906 0.285156 -2.390625 0.578125 -2.703125 C 0.867188 -3.023438 1.238281 -3.1875 1.6875 -3.1875 C 2.09375 -3.1875 2.429688 -3.0625 2.703125 -2.8125 L 2.703125 -3.109375 L 3.765625 -3.109375 L 3.765625 0 L 2.703125 0 L 2.703125 -0.34375 C 2.429688 -0.0507812 2.09375 0.09375 1.6875 0.09375 C 1.238281 0.09375 0.867188 -0.0625 0.578125 -0.375 Z M 1.484375 -2.078125 C 1.347656 -1.941406 1.28125 -1.765625 1.28125 -1.546875 C 1.28125 -1.335938 1.34375 -1.164062 1.46875 -1.03125 C 1.601562 -0.894531 1.78125 -0.828125 2 -0.828125 C 2.207031 -0.828125 2.378906 -0.894531 2.515625 -1.03125 C 2.648438 -1.164062 2.71875 -1.335938 2.71875 -1.546875 C 2.71875 -1.765625 2.644531 -1.941406 2.5 -2.078125 C 2.363281 -2.210938 2.195312 -2.28125 2 -2.28125 C 1.789062 -2.28125 1.617188 -2.210938 1.484375 -2.078125 Z M 1.484375 -2.078125 "/></g></g><g style="fill:#fae202;fill-opacity:1;"><g transform="translate(108.286487, 52.82828)"><path style="stroke:none" d="M 0.359375 0 L 0.359375 -3.109375 L 1.4375 -3.109375 L 1.4375 -2.78125 C 1.71875 -3.050781 2.015625 -3.1875 2.328125 -3.1875 C 2.554688 -3.1875 2.769531 -3.140625 2.96875 -3.046875 C 3.164062 -2.960938 3.316406 -2.820312 3.421875 -2.625 C 3.734375 -3 4.070312 -3.1875 4.4375 -3.1875 C 4.769531 -3.1875 5.054688 -3.09375 5.296875 -2.90625 C 5.535156 -2.726562 5.65625 -2.441406 5.65625 -2.046875 L 5.65625 0 L 4.578125 0 L 4.578125 -1.75 C 4.578125 -1.914062 4.53125 -2.050781 4.4375 -2.15625 C 4.351562 -2.269531 4.222656 -2.328125 4.046875 -2.328125 C 3.878906 -2.328125 3.753906 -2.28125 3.671875 -2.1875 C 3.597656 -2.09375 3.554688 -1.976562 3.546875 -1.84375 L 3.546875 0 L 2.46875 0 L 2.46875 -1.75 C 2.46875 -1.914062 2.421875 -2.050781 2.328125 -2.15625 C 2.242188 -2.269531 2.109375 -2.328125 1.921875 -2.328125 C 1.765625 -2.328125 1.644531 -2.273438 1.5625 -2.171875 C 1.476562 -2.078125 1.4375 -1.957031 1.4375 -1.8125 L 1.4375 0 Z M 0.359375 0 "/></g></g><g style="fill:#fae202;fill-opacity:1;"><g transform="translate(113.945384, 52.82828)"><path style="stroke:none" d="M 3.546875 -2.71875 C 3.835938 -2.40625 3.984375 -2.015625 3.984375 -1.546875 C 3.984375 -1.085938 3.835938 -0.695312 3.546875 -0.375 C 3.265625 -0.0625 2.898438 0.09375 2.453125 0.09375 C 2.035156 0.09375 1.695312 -0.0351562 1.4375 -0.296875 L 1.4375 1.578125 L 0.359375 1.578125 L 0.359375 -3.109375 L 1.421875 -3.109375 L 1.421875 -2.75 L 1.4375 -2.75 C 1.695312 -3.039062 2.035156 -3.1875 2.453125 -3.1875 C 2.898438 -3.1875 3.265625 -3.03125 3.546875 -2.71875 Z M 2.640625 -1.03125 C 2.785156 -1.164062 2.859375 -1.335938 2.859375 -1.546875 C 2.859375 -1.765625 2.789062 -1.941406 2.65625 -2.078125 C 2.519531 -2.210938 2.34375 -2.28125 2.125 -2.28125 C 1.914062 -2.28125 1.742188 -2.210938 1.609375 -2.078125 C 1.472656 -1.941406 1.40625 -1.765625 1.40625 -1.546875 C 1.40625 -1.335938 1.472656 -1.164062 1.609375 -1.03125 C 1.753906 -0.894531 1.925781 -0.828125 2.125 -0.828125 C 2.332031 -0.828125 2.503906 -0.894531 2.640625 -1.03125 Z M 2.640625 -1.03125 "/></g></g><g style="fill:#fae202;fill-opacity:1;"><g transform="translate(117.778442, 52.82828)"><path style="stroke:none" d="M 0.359375 0 L 0.359375 -5.203125 L 1.4375 -5.203125 L 1.4375 0 Z M 0.359375 0 "/></g></g><g style="fill:#fae202;fill-opacity:1;"><g transform="translate(119.277811, 52.82828)"><path style="stroke:none" d="M 0.46875 -4.828125 C 0.59375 -4.953125 0.738281 -5.015625 0.90625 -5.015625 C 1.082031 -5.015625 1.234375 -4.953125 1.359375 -4.828125 C 1.484375 -4.703125 1.546875 -4.550781 1.546875 -4.375 C 1.546875 -4.207031 1.484375 -4.0625 1.359375 -3.9375 C 1.234375 -3.8125 1.082031 -3.75 0.90625 -3.75 C 0.738281 -3.75 0.59375 -3.8125 0.46875 -3.9375 C 0.34375 -4.0625 0.28125 -4.207031 0.28125 -4.375 C 0.28125 -4.550781 0.34375 -4.703125 0.46875 -4.828125 Z M 0.359375 -3.109375 L 0.359375 0 L 1.4375 0 L 1.4375 -3.109375 Z M 0.359375 -3.109375 "/></g></g><g style="fill:#fae202;fill-opacity:1;"><g transform="translate(120.807407, 52.82828)"><path style="stroke:none" d="M 0.546875 -3.109375 L 0.546875 -3.765625 C 0.546875 -4.222656 0.648438 -4.59375 0.859375 -4.875 C 1.078125 -5.15625 1.378906 -5.296875 1.765625 -5.296875 C 1.921875 -5.296875 2.070312 -5.269531 2.21875 -5.21875 C 2.363281 -5.175781 2.472656 -5.128906 2.546875 -5.078125 L 2.640625 -5.015625 L 2.265625 -4.25 C 2.171875 -4.3125 2.066406 -4.34375 1.953125 -4.34375 C 1.816406 -4.34375 1.722656 -4.296875 1.671875 -4.203125 C 1.628906 -4.109375 1.609375 -3.953125 1.609375 -3.734375 L 1.609375 -3.109375 L 2.328125 -3.109375 L 2.328125 -2.28125 L 1.609375 -2.28125 L 1.609375 0 L 0.546875 0 L 0.546875 -2.28125 L 0.09375 -2.28125 L 0.09375 -3.109375 Z M 0.546875 -3.109375 "/></g></g><g style="fill:#fae202;fill-opacity:1;"><g transform="translate(122.77835, 52.82828)"><path style="stroke:none" d="M 2.71875 -3.109375 L 3.953125 -3.109375 L 1.515625 1.578125 L 0.28125 1.578125 L 1.34375 -0.484375 L -0.125 -3.109375 L 1.109375 -3.109375 L 1.984375 -1.515625 Z M 2.71875 -3.109375 "/></g></g><g style="fill:#fae202;fill-opacity:1;"><g transform="translate(126.309116, 52.82828)"><path style="stroke:none" d=""/></g></g><g style="fill:#fae202;fill-opacity:1;"><g transform="translate(127.663381, 52.82828)"><path style="stroke:none" d="M 2.71875 -3.109375 L 3.953125 -3.109375 L 1.515625 1.578125 L 0.28125 1.578125 L 1.34375 -0.484375 L -0.125 -3.109375 L 1.109375 -3.109375 L 1.984375 -1.515625 Z M 2.71875 -3.109375 "/></g></g><g style="fill:#fae202;fill-opacity:1;"><g transform="translate(131.194147, 52.82828)"><path style="stroke:none" d="M 0.65625 -0.359375 C 0.3125 -0.671875 0.140625 -1.066406 0.140625 -1.546875 C 0.140625 -2.023438 0.316406 -2.414062 0.671875 -2.71875 C 1.035156 -3.03125 1.476562 -3.1875 2 -3.1875 C 2.519531 -3.1875 2.957031 -3.03125 3.3125 -2.71875 C 3.675781 -2.414062 3.859375 -2.023438 3.859375 -1.546875 C 3.859375 -1.066406 3.679688 -0.671875 3.328125 -0.359375 C 2.984375 -0.0546875 2.539062 0.09375 2 0.09375 C 1.445312 0.09375 1 -0.0546875 0.65625 -0.359375 Z M 1.484375 -2.078125 C 1.347656 -1.941406 1.28125 -1.765625 1.28125 -1.546875 C 1.28125 -1.335938 1.34375 -1.164062 1.46875 -1.03125 C 1.601562 -0.894531 1.78125 -0.828125 2 -0.828125 C 2.207031 -0.828125 2.378906 -0.894531 2.515625 -1.03125 C 2.648438 -1.164062 2.71875 -1.335938 2.71875 -1.546875 C 2.71875 -1.765625 2.644531 -1.941406 2.5 -2.078125 C 2.363281 -2.210938 2.195312 -2.28125 2 -2.28125 C 1.789062 -2.28125 1.617188 -2.210938 1.484375 -2.078125 Z M 1.484375 -2.078125 "/></g></g><g style="fill:#fae202;fill-opacity:1;"><g transform="translate(134.894194, 52.82828)"><path style="stroke:none" d="M 1.375 -3.109375 L 1.375 -1.625 C 1.375 -1.320312 1.421875 -1.101562 1.515625 -0.96875 C 1.609375 -0.84375 1.765625 -0.78125 1.984375 -0.78125 C 2.203125 -0.78125 2.359375 -0.84375 2.453125 -0.96875 C 2.546875 -1.101562 2.59375 -1.320312 2.59375 -1.625 L 2.59375 -3.109375 L 3.671875 -3.109375 L 3.671875 -1.359375 C 3.671875 -0.847656 3.535156 -0.476562 3.265625 -0.25 C 2.992188 -0.0195312 2.566406 0.09375 1.984375 0.09375 C 1.398438 0.09375 0.972656 -0.0195312 0.703125 -0.25 C 0.429688 -0.476562 0.296875 -0.847656 0.296875 -1.359375 L 0.296875 -3.109375 Z M 1.375 -3.109375 "/></g></g><g style="fill:#fae202;fill-opacity:1;"><g transform="translate(138.564014, 52.82828)"><path style="stroke:none" d="M 0.359375 0 L 0.359375 -3.109375 L 1.4375 -3.109375 L 1.4375 -2.65625 C 1.445312 -2.664062 1.460938 -2.679688 1.484375 -2.703125 C 1.503906 -2.734375 1.539062 -2.78125 1.59375 -2.84375 C 1.65625 -2.90625 1.722656 -2.957031 1.796875 -3 C 1.867188 -3.050781 1.957031 -3.09375 2.0625 -3.125 C 2.164062 -3.164062 2.273438 -3.1875 2.390625 -3.1875 C 2.503906 -3.1875 2.617188 -3.171875 2.734375 -3.140625 C 2.847656 -3.109375 2.929688 -3.078125 2.984375 -3.046875 L 3.078125 -3 L 2.625 -2.09375 C 2.488281 -2.207031 2.300781 -2.265625 2.0625 -2.265625 C 1.9375 -2.265625 1.828125 -2.234375 1.734375 -2.171875 C 1.640625 -2.117188 1.570312 -2.050781 1.53125 -1.96875 C 1.5 -1.882812 1.472656 -1.816406 1.453125 -1.765625 C 1.441406 -1.710938 1.4375 -1.664062 1.4375 -1.625 L 1.4375 0 Z M 0.359375 0 "/></g></g><g style="fill:#fae202;fill-opacity:1;"><g transform="translate(141.278594, 52.82828)"><path style="stroke:none" d="M 3.5 -1.40625 L 1.25 -1.40625 C 1.25 -1.1875 1.316406 -1.023438 1.453125 -0.921875 C 1.597656 -0.816406 1.753906 -0.765625 1.921875 -0.765625 C 2.097656 -0.765625 2.234375 -0.785156 2.328125 -0.828125 C 2.429688 -0.878906 2.546875 -0.972656 2.671875 -1.109375 L 3.453125 -0.71875 C 3.128906 -0.175781 2.59375 0.09375 1.84375 0.09375 C 1.375 0.09375 0.972656 -0.0664062 0.640625 -0.390625 C 0.304688 -0.710938 0.140625 -1.097656 0.140625 -1.546875 C 0.140625 -1.992188 0.304688 -2.378906 0.640625 -2.703125 C 0.972656 -3.023438 1.375 -3.1875 1.84375 -3.1875 C 2.332031 -3.1875 2.726562 -3.046875 3.03125 -2.765625 C 3.34375 -2.484375 3.5 -2.078125 3.5 -1.546875 C 3.5 -1.472656 3.5 -1.425781 3.5 -1.40625 Z M 1.28125 -2 L 2.46875 -2 C 2.4375 -2.15625 2.367188 -2.273438 2.265625 -2.359375 C 2.160156 -2.453125 2.03125 -2.5 1.875 -2.5 C 1.695312 -2.5 1.554688 -2.453125 1.453125 -2.359375 C 1.347656 -2.265625 1.289062 -2.144531 1.28125 -2 Z M 1.28125 -2 "/></g></g><g style="fill:#fae202;fill-opacity:1;"><g transform="translate(144.627986, 52.82828)"><path style="stroke:none" d=""/></g></g><g style="fill:#fae202;fill-opacity:1;"><g transform="translate(145.982251, 52.82828)"><path style="stroke:none" d="M 1.71875 -3.1875 C 1.894531 -3.1875 2.066406 -3.164062 2.234375 -3.125 C 2.410156 -3.09375 2.539062 -3.054688 2.625 -3.015625 L 2.75 -2.953125 L 2.40625 -2.25 C 2.15625 -2.375 1.925781 -2.4375 1.71875 -2.4375 C 1.59375 -2.4375 1.503906 -2.421875 1.453125 -2.390625 C 1.398438 -2.367188 1.375 -2.320312 1.375 -2.25 C 1.375 -2.238281 1.375 -2.222656 1.375 -2.203125 C 1.382812 -2.191406 1.394531 -2.175781 1.40625 -2.15625 C 1.414062 -2.144531 1.425781 -2.132812 1.4375 -2.125 C 1.445312 -2.113281 1.460938 -2.101562 1.484375 -2.09375 C 1.515625 -2.082031 1.535156 -2.070312 1.546875 -2.0625 C 1.566406 -2.0625 1.59375 -2.050781 1.625 -2.03125 C 1.65625 -2.019531 1.675781 -2.007812 1.6875 -2 C 1.707031 -2 1.734375 -1.992188 1.765625 -1.984375 C 1.804688 -1.972656 1.835938 -1.960938 1.859375 -1.953125 C 1.984375 -1.921875 2.09375 -1.878906 2.1875 -1.828125 C 2.28125 -1.785156 2.378906 -1.726562 2.484375 -1.65625 C 2.585938 -1.582031 2.664062 -1.484375 2.71875 -1.359375 C 2.78125 -1.242188 2.8125 -1.113281 2.8125 -0.96875 C 2.8125 -0.257812 2.320312 0.09375 1.34375 0.09375 C 1.113281 0.09375 0.898438 0.0625 0.703125 0 C 0.503906 -0.0703125 0.359375 -0.144531 0.265625 -0.21875 L 0.140625 -0.328125 L 0.578125 -1.0625 C 0.609375 -1.03125 0.648438 -0.992188 0.703125 -0.953125 C 0.753906 -0.921875 0.847656 -0.867188 0.984375 -0.796875 C 1.117188 -0.734375 1.238281 -0.703125 1.34375 -0.703125 C 1.5625 -0.703125 1.671875 -0.773438 1.671875 -0.921875 C 1.671875 -0.992188 1.640625 -1.046875 1.578125 -1.078125 C 1.523438 -1.117188 1.429688 -1.160156 1.296875 -1.203125 C 1.160156 -1.253906 1.054688 -1.300781 0.984375 -1.34375 C 0.796875 -1.445312 0.644531 -1.5625 0.53125 -1.6875 C 0.414062 -1.8125 0.359375 -1.976562 0.359375 -2.1875 C 0.359375 -2.507812 0.476562 -2.753906 0.71875 -2.921875 C 0.96875 -3.097656 1.300781 -3.1875 1.71875 -3.1875 Z M 1.71875 -3.1875 "/></g></g><g style="fill:#fae202;fill-opacity:1;"><g transform="translate(148.660554, 52.82828)"><path style="stroke:none" d="M 3.5 -1.40625 L 1.25 -1.40625 C 1.25 -1.1875 1.316406 -1.023438 1.453125 -0.921875 C 1.597656 -0.816406 1.753906 -0.765625 1.921875 -0.765625 C 2.097656 -0.765625 2.234375 -0.785156 2.328125 -0.828125 C 2.429688 -0.878906 2.546875 -0.972656 2.671875 -1.109375 L 3.453125 -0.71875 C 3.128906 -0.175781 2.59375 0.09375 1.84375 0.09375 C 1.375 0.09375 0.972656 -0.0664062 0.640625 -0.390625 C 0.304688 -0.710938 0.140625 -1.097656 0.140625 -1.546875 C 0.140625 -1.992188 0.304688 -2.378906 0.640625 -2.703125 C 0.972656 -3.023438 1.375 -3.1875 1.84375 -3.1875 C 2.332031 -3.1875 2.726562 -3.046875 3.03125 -2.765625 C 3.34375 -2.484375 3.5 -2.078125 3.5 -1.546875 C 3.5 -1.472656 3.5 -1.425781 3.5 -1.40625 Z M 1.28125 -2 L 2.46875 -2 C 2.4375 -2.15625 2.367188 -2.273438 2.265625 -2.359375 C 2.160156 -2.453125 2.03125 -2.5 1.875 -2.5 C 1.695312 -2.5 1.554688 -2.453125 1.453125 -2.359375 C 1.347656 -2.265625 1.289062 -2.144531 1.28125 -2 Z M 1.28125 -2 "/></g></g><g style="fill:#fae202;fill-opacity:1;"><g transform="translate(152.009946, 52.82828)"><path style="stroke:none" d="M 0.359375 0 L 0.359375 -5.203125 L 1.4375 -5.203125 L 1.4375 0 Z M 0.359375 0 "/></g></g><g style="fill:#fae202;fill-opacity:1;"><g transform="translate(153.509315, 52.82828)"><path style="stroke:none" d="M 0.546875 -3.109375 L 0.546875 -3.765625 C 0.546875 -4.222656 0.648438 -4.59375 0.859375 -4.875 C 1.078125 -5.15625 1.378906 -5.296875 1.765625 -5.296875 C 1.921875 -5.296875 2.070312 -5.269531 2.21875 -5.21875 C 2.363281 -5.175781 2.472656 -5.128906 2.546875 -5.078125 L 2.640625 -5.015625 L 2.265625 -4.25 C 2.171875 -4.3125 2.066406 -4.34375 1.953125 -4.34375 C 1.816406 -4.34375 1.722656 -4.296875 1.671875 -4.203125 C 1.628906 -4.109375 1.609375 -3.953125 1.609375 -3.734375 L 1.609375 -3.109375 L 2.328125 -3.109375 L 2.328125 -2.28125 L 1.609375 -2.28125 L 1.609375 0 L 0.546875 0 L 0.546875 -2.28125 L 0.09375 -2.28125 L 0.09375 -3.109375 Z M 0.546875 -3.109375 "/></g></g><g style="fill:#004aad;fill-opacity:1;"><g transform="translate(52.487507, 45.803558)"><path style="stroke:none" d="M 18.921875 -43.6875 C 21.242188 -43.6875 23.515625 -43.347656 25.734375 -42.671875 C 27.953125 -41.992188 29.601562 -41.320312 30.6875 -40.65625 L 32.234375 -39.625 L 28.28125 -31.828125 C 27.96875 -32.035156 27.535156 -32.300781 26.984375 -32.625 C 26.429688 -32.957031 25.390625 -33.398438 23.859375 -33.953125 C 22.335938 -34.503906 20.921875 -34.78125 19.609375 -34.78125 C 17.972656 -34.78125 16.710938 -34.429688 15.828125 -33.734375 C 14.953125 -33.046875 14.515625 -32.113281 14.515625 -30.9375 C 14.515625 -30.351562 14.71875 -29.804688 15.125 -29.296875 C 15.539062 -28.796875 16.25 -28.257812 17.25 -27.6875 C 18.257812 -27.113281 19.144531 -26.65625 19.90625 -26.3125 C 20.675781 -25.96875 21.859375 -25.445312 23.453125 -24.75 C 26.222656 -23.570312 28.585938 -21.96875 30.546875 -19.9375 C 32.503906 -17.914062 33.484375 -15.617188 33.484375 -13.046875 C 33.484375 -10.585938 33.039062 -8.4375 32.15625 -6.59375 C 31.28125 -4.757812 30.066406 -3.320312 28.515625 -2.28125 C 26.972656 -1.25 25.265625 -0.484375 23.390625 0.015625 C 21.523438 0.523438 19.5 0.78125 17.3125 0.78125 C 15.445312 0.78125 13.609375 0.585938 11.796875 0.203125 C 9.992188 -0.171875 8.484375 -0.644531 7.265625 -1.21875 C 6.054688 -1.789062 4.96875 -2.351562 4 -2.90625 C 3.03125 -3.46875 2.320312 -3.9375 1.875 -4.3125 L 1.203125 -4.890625 L 6.078125 -13.109375 C 6.492188 -12.753906 7.066406 -12.304688 7.796875 -11.765625 C 8.523438 -11.234375 9.816406 -10.515625 11.671875 -9.609375 C 13.523438 -8.710938 15.164062 -8.265625 16.59375 -8.265625 C 20.71875 -8.265625 22.78125 -9.671875 22.78125 -12.484375 C 22.78125 -13.066406 22.628906 -13.609375 22.328125 -14.109375 C 22.035156 -14.617188 21.515625 -15.125 20.765625 -15.625 C 20.023438 -16.125 19.367188 -16.519531 18.796875 -16.8125 C 18.222656 -17.113281 17.285156 -17.566406 15.984375 -18.171875 C 14.691406 -18.773438 13.734375 -19.234375 13.109375 -19.546875 C 10.503906 -20.828125 8.488281 -22.429688 7.0625 -24.359375 C 5.644531 -26.285156 4.9375 -28.359375 4.9375 -30.578125 C 4.9375 -34.421875 6.359375 -37.566406 9.203125 -40.015625 C 12.046875 -42.460938 15.285156 -43.6875 18.921875 -43.6875 Z M 18.921875 -43.6875 "/></g></g><g style="fill:#004aad;fill-opacity:1;"><g transform="translate(84.564367, 45.803558)"><path style="stroke:none" d=""/></g></g><g style="fill:#004aad;fill-opacity:1;"><g transform="translate(95.897465, 45.803558)"><path style="stroke:none" d="M 3.125 0 L 3.125 -44.71875 L 12.328125 -44.71875 L 12.328125 0 Z M 3.125 0 "/></g></g><g style="fill:#004aad;fill-opacity:1;"><g transform="translate(108.478307, 45.803558)"><path style="stroke:none" d="M 4.6875 -26.671875 L 4.6875 -32.34375 C 4.71875 -36.332031 5.648438 -39.519531 7.484375 -41.90625 C 9.328125 -44.300781 11.875 -45.5 15.125 -45.5 C 16.519531 -45.5 17.847656 -45.296875 19.109375 -44.890625 C 20.378906 -44.492188 21.289062 -44.09375 21.84375 -43.6875 L 22.71875 -43.109375 L 19.5 -36.609375 C 18.664062 -37.097656 17.75 -37.34375 16.75 -37.34375 C 15.601562 -37.34375 14.835938 -36.953125 14.453125 -36.171875 C 14.078125 -35.390625 13.890625 -34.023438 13.890625 -32.078125 L 13.890625 -26.671875 L 20.015625 -26.671875 L 20.015625 -19.65625 L 13.890625 -19.65625 L 13.890625 0 L 4.6875 0 L 4.6875 -19.65625 L 0.828125 -19.65625 L 0.828125 -26.671875 Z M 4.6875 -26.671875 "/></g></g><g style="fill:#004aad;fill-opacity:1;"><g transform="translate(125.114318, 45.803558)"><path style="stroke:none" d="M 4 -41.546875 C 5.070312 -42.617188 6.351562 -43.15625 7.84375 -43.15625 C 9.34375 -43.15625 10.628906 -42.617188 11.703125 -41.546875 C 12.773438 -40.472656 13.3125 -39.191406 13.3125 -37.703125 C 13.3125 -36.210938 12.773438 -34.925781 11.703125 -33.84375 C 10.628906 -32.769531 9.34375 -32.234375 7.84375 -32.234375 C 6.351562 -32.234375 5.070312 -32.769531 4 -33.84375 C 2.925781 -34.925781 2.390625 -36.210938 2.390625 -37.703125 C 2.390625 -39.191406 2.925781 -40.472656 4 -41.546875 Z M 3.125 -26.671875 L 3.125 0 L 12.328125 0 L 12.328125 -26.671875 Z M 3.125 -26.671875 "/></g></g><g style="fill:#004aad;fill-opacity:1;"><g transform="translate(137.955111, 45.803558)"><path style="stroke:none" d="M 4.6875 -26.671875 L 4.6875 -32.34375 C 4.71875 -36.332031 5.648438 -39.519531 7.484375 -41.90625 C 9.328125 -44.300781 11.875 -45.5 15.125 -45.5 C 16.519531 -45.5 17.847656 -45.296875 19.109375 -44.890625 C 20.378906 -44.492188 21.289062 -44.09375 21.84375 -43.6875 L 22.71875 -43.109375 L 19.5 -36.609375 C 18.664062 -37.097656 17.75 -37.34375 16.75 -37.34375 C 15.601562 -37.34375 14.835938 -36.953125 14.453125 -36.171875 C 14.078125 -35.390625 13.890625 -34.023438 13.890625 -32.078125 L 13.890625 -26.671875 L 20.015625 -26.671875 L 20.015625 -19.65625 L 13.890625 -19.65625 L 13.890625 0 L 4.6875 0 L 4.6875 -19.65625 L 0.828125 -19.65625 L 0.828125 -26.671875 Z M 4.6875 -26.671875 "/></g></g><g style="fill:#004aad;fill-opacity:1;"><g transform="translate(154.591122, 45.803558)"><path style="stroke:none" d="M 23.34375 -26.671875 L 33.953125 -26.671875 L 13 13.515625 L 2.390625 13.515625 L 11.59375 -4.15625 L -1.046875 -26.671875 L 9.5625 -26.671875 L 17 -13 Z M 23.34375 -26.671875 "/></g></g><g style="fill:#fae202;fill-opacity:1;"><g transform="translate(87.043428, 50.27472)"><path style="stroke:none" d="M 19.28125 -22.9375 L 3.53125 -14.515625 C 4.34375 -12.984375 5.4375 -12.113281 6.8125 -11.90625 C 8.195312 -11.707031 9.46875 -11.914062 10.625 -12.53125 C 11.84375 -13.175781 12.71875 -13.851562 13.25 -14.5625 C 13.78125 -15.269531 14.238281 -16.34375 14.625 -17.78125 L 21.484375 -17.984375 C 21.265625 -12.984375 18.523438 -9.078125 13.265625 -6.265625 C 9.984375 -4.515625 6.570312 -4.132812 3.03125 -5.125 C -0.507812 -6.125 -3.125 -8.203125 -4.8125 -11.359375 C -6.507812 -14.523438 -6.789062 -17.863281 -5.65625 -21.375 C -4.53125 -24.894531 -2.328125 -27.53125 0.953125 -29.28125 C 4.398438 -31.125 7.734375 -31.625 10.953125 -30.78125 C 14.179688 -29.945312 16.785156 -27.679688 18.765625 -23.984375 C 19.035156 -23.472656 19.207031 -23.125 19.28125 -22.9375 Z M 1.5 -18.78125 L 9.765625 -23.203125 C 8.984375 -24.242188 8.070312 -24.875 7.03125 -25.09375 C 5.988281 -25.3125 4.898438 -25.117188 3.765625 -24.515625 C 2.523438 -23.859375 1.710938 -23.007812 1.328125 -21.96875 C 0.941406 -20.925781 1 -19.863281 1.5 -18.78125 Z M 1.5 -18.78125 "/></g></g></g></svg>